<svg width="512" height="512" fill="none" xmlns="http://www.w3.org/2000/svg"><g clip-path="url(#a)"><path d="M0 100C0 44.772 44.772 0 100 0h312c55.228 0 100 44.772 100 100v312c0 55.228-44.772 100-100 100H100C44.772 512 0 467.228 0 412V100Z" fill="#fff"/><path d="M551.33 190.545C366.945 88.178 290.952 71.117 206.123 171.131c0 0-13.829 17.137-24.741 25.886-12.061 9.669-15.337 15.287-27.099 22.355-30.419 18.281-68.487 25.098-101.912 37.064 0 0-12.371 4.17-12.371 11.178 0 7.009 109.38 47.93 120.174 52.949 25.587 16.849 28.103 28.262 69.659 98.777 41.556 70.515 66.789 112.202 128.722 164.88 70.212 59.72 189.556 100.372 305.88 115.059 71.563 6.808 136.716-6.8 201.469-36.906 128.549-59.768 176.696-104.991 307.506-148.259 62.8-20.773 140.49-13.961 123.12-38.237-7.01-9.799-53.81-22.291-73.33-30.572-22.89-11.096-186.04-55.033-210.02-63.558-13.618-4.84-21.076-4.701-35.938-8.825-14.863-4.123-37.702-11.766-37.702-11.766s26.764-12.943 47.716-40.593c45.884-66.749 109.364-127.498 186.154-156.492 32.06-12.106 58.9-22.56 103.68-29.416 37.47-5.736 10.45-38.895-11.19-45.888 0 0-51.26-27.063-173.79-67.068-122.527-40.005-297.604-45.3-540.78 168.846Z" fill="#fff" stroke="#000" stroke-width="25"/><path d="M376 234.5c0 32.297-29.845 59.5-68 59.5s-68-27.203-68-59.5 29.845-59.5 68-59.5 68 27.203 68 59.5Z" fill="#fff" stroke="#000" stroke-width="10"/><path d="M338.5 231c0 19.547-18.069 35.5-40.5 35.5s-40.5-15.953-40.5-35.5 18.069-35.5 40.5-35.5 40.5 15.953 40.5 35.5Z" fill="#000" stroke="#000"/></g><defs><clipPath id="a"><path d="M0 100C0 44.772 44.772 0 100 0h312c55.228 0 100 44.772 100 100v312c0 55.228-44.772 100-100 100H100C44.772 512 0 467.228 0 412V100Z" fill="#fff"/></clipPath></defs></svg>