<svg width="512" height="512" viewBox="0 0 512 512" fill="none" xmlns="http://www.w3.org/2000/svg">
<g clip-path="url(#clip0_2_3)">
<rect width="512" height="512" fill="white"/>
<path d="M551.33 190.545C366.945 88.1784 290.952 71.1173 206.123 171.131C206.123 171.131 192.294 188.268 181.382 197.016C169.321 206.686 166.045 212.304 154.283 219.372C123.864 237.653 85.7957 244.47 52.3709 256.436C52.3709 256.436 40 260.606 40 267.614C40 274.623 149.38 315.544 160.174 320.563C185.761 337.412 188.277 348.825 229.833 419.34C271.389 489.855 296.622 531.542 358.555 584.22C428.767 643.94 548.111 684.592 664.435 699.279C735.998 706.087 801.151 692.479 865.904 662.373C994.453 602.605 1042.6 557.382 1173.41 514.114C1236.21 493.341 1313.9 500.153 1296.53 475.877C1289.52 466.078 1242.72 453.586 1223.2 445.305C1200.31 434.209 1037.16 390.272 1013.18 381.747C999.562 376.907 992.104 377.046 977.242 372.922C962.379 368.799 939.54 361.156 939.54 361.156C939.54 361.156 966.304 348.213 987.256 320.563C1033.14 253.814 1096.62 193.065 1173.41 164.071C1205.47 151.965 1232.31 141.511 1277.09 134.655C1314.56 128.919 1287.54 95.7604 1265.9 88.7667C1265.9 88.7667 1214.64 61.7043 1092.11 21.699C969.583 -18.3063 794.506 -23.6012 551.33 190.545Z" fill="white" stroke="black" stroke-width="25"/>
<path d="M376 234.5C376 266.797 346.155 294 308 294C269.845 294 240 266.797 240 234.5C240 202.203 269.845 175 308 175C346.155 175 376 202.203 376 234.5Z" fill="white" stroke="black" stroke-width="10"/>
<path d="M338.5 231C338.5 250.547 320.431 266.5 298 266.5C275.569 266.5 257.5 250.547 257.5 231C257.5 211.453 275.569 195.5 298 195.5C320.431 195.5 338.5 211.453 338.5 231Z" fill="black" stroke="black"/>
</g>
<defs>
<clipPath id="clip0_2_3">
<rect width="512" height="512" fill="white"/>
</clipPath>
</defs>
</svg>
